<?xml version="1.0" encoding="UTF-8" standalone="no"?>
<!-- Created with Inkscape (http://www.inkscape.org/) -->

<svg
   width="336"
   height="336"
   viewBox="0 0 88.899999 88.899999"
   version="1.1"
   id="svg1"
   inkscape:version="1.4 (86a8ad7, 2024-10-11)"
   sodipodi:docname="logo.svg"
   xml:space="preserve"
   inkscape:export-filename="logo.png"
   inkscape:export-xdpi="96"
   inkscape:export-ydpi="96"
   xmlns:inkscape="http://www.inkscape.org/namespaces/inkscape"
   xmlns:sodipodi="http://sodipodi.sourceforge.net/DTD/sodipodi-0.dtd"
   xmlns:xlink="http://www.w3.org/1999/xlink"
   xmlns="http://www.w3.org/2000/svg"
   xmlns:svg="http://www.w3.org/2000/svg"><sodipodi:namedview
     id="namedview1"
     pagecolor="#666666"
     bordercolor="#000000"
     borderopacity="0.25"
     inkscape:showpageshadow="false"
     inkscape:pageopacity="0.0"
     inkscape:pagecheckerboard="true"
     inkscape:deskcolor="#d1d1d1"
     inkscape:document-units="px"
     showborder="false"
     borderlayer="false"
     inkscape:zoom="1.4378367"
     inkscape:cx="125.18807"
     inkscape:cy="240.98703"
     inkscape:window-width="1920"
     inkscape:window-height="1009"
     inkscape:window-x="-8"
     inkscape:window-y="-8"
     inkscape:window-maximized="1"
     inkscape:current-layer="layer1"
     showgrid="false" /><defs
     id="defs1"><linearGradient
       id="linearGradient7"
       inkscape:collect="always"><stop
         style="stop-color:#00502d;stop-opacity:1;"
         offset="0"
         id="stop7" /><stop
         style="stop-color:#000000;stop-opacity:1;"
         offset="0.44493213"
         id="stop9" /><stop
         style="stop-color:#008cda;stop-opacity:1;"
         offset="1"
         id="stop8" /></linearGradient><linearGradient
       id="linearGradient5"
       inkscape:collect="always"><stop
         style="stop-color:#00ff85;stop-opacity:1;"
         offset="0"
         id="stop5" /><stop
         style="stop-color:#00bcff;stop-opacity:1;"
         offset="1"
         id="stop6" /></linearGradient><inkscape:path-effect
       effect="fillet_chamfer"
       id="path-effect3"
       is_visible="true"
       lpeversion="1"
       nodesatellites_param="F,0,0,1,0,14.816666,0,1 @ F,0,0,1,0,14.816666,0,1 @ F,0,0,1,0,14.816666,0,1 @ F,0,0,1,0,14.816666,0,1"
       radius="56"
       unit="px"
       method="auto"
       mode="F"
       chamfer_steps="1"
       flexible="false"
       use_knot_distance="true"
       apply_no_radius="true"
       apply_with_radius="true"
       only_selected="false"
       hide_knots="false" /><inkscape:path-effect
       effect="fillet_chamfer"
       id="path-effect1"
       is_visible="true"
       lpeversion="1"
       nodesatellites_param="F,0,0,1,0,16.66875,0,1 @ F,0,0,1,0,16.66875,0,1 @ F,0,0,1,0,16.66875,0,1 @ F,0,0,1,0,16.66875,0,1"
       radius="64"
       unit="px"
       method="auto"
       mode="F"
       chamfer_steps="1"
       flexible="false"
       use_knot_distance="true"
       apply_no_radius="true"
       apply_with_radius="true"
       only_selected="false"
       hide_knots="false" /><linearGradient
       inkscape:collect="always"
       xlink:href="#linearGradient5"
       id="linearGradient6"
       x1="79.640358"
       y1="123.03202"
       x2="129.90964"
       y2="173.3013"
       gradientUnits="userSpaceOnUse"
       gradientTransform="matrix(0.85877026,0,0,0.85877026,14.797347,20.925572)" /><radialGradient
       inkscape:collect="always"
       xlink:href="#linearGradient7"
       id="radialGradient8"
       cx="76.620728"
       cy="118.90831"
       fx="76.620728"
       fy="118.90831"
       r="39.687502"
       gradientTransform="matrix(2.166852,2.4315478,-3.3500403,2.9853582,308.94258,-422.38257)"
       gradientUnits="userSpaceOnUse" /></defs><g
     inkscape:label="Layer 1"
     inkscape:groupmode="layer"
     id="layer1"
     transform="translate(-60.324997,-103.71667)"><path
       style="fill-rule:evenodd;stroke-width:0.931677;stroke-linecap:round;stroke-linejoin:round;stroke-dashoffset:2834.65;paint-order:markers stroke fill;fill:#ffffff"
       d="m 78.892211,105.83298 c -9.053846,0 -16.449923,7.39607 -16.449923,16.44992 v 51.76631 c 0,9.05384 7.396077,16.44992 16.449923,16.44992 h 51.766309 c 9.05384,0 16.44992,-7.39608 16.44992,-16.44992 V 122.2829 c 0,-9.05385 -7.39608,-16.44992 -16.44992,-16.44992 z m 0,5.29163 h 51.766309 c 6.19401,0 11.15828,4.96427 11.15828,11.15829 v 51.76631 c 0,6.19401 -4.96427,11.15828 -11.15828,11.15828 H 78.892211 c -6.194017,0 -11.158289,-4.96427 -11.158289,-11.15828 V 122.2829 c 0,-6.19402 4.964272,-11.15829 11.158289,-11.15829 z"
       id="path3" /><path
       style="fill:url(#radialGradient8);fill-rule:evenodd;stroke-width:0.931677;stroke-linecap:round;stroke-linejoin:round;stroke-dashoffset:2834.65;paint-order:markers stroke fill"
       d="m 78.891845,108.47916 h 51.766295 a 13.804348,13.804348 0 0 1 13.80436,13.80436 v 51.7663 a 13.804348,13.804348 0 0 1 -13.80436,13.80435 H 78.891845 A 13.804348,13.804348 0 0 1 65.087497,174.04982 v -51.7663 a 13.804348,13.804348 0 0 1 13.804348,-13.80436 z"
       id="path4" /><path
       id="path8"
       style="fill:url(#linearGradient6);fill-rule:evenodd;stroke-linecap:round;stroke-linejoin:round;stroke-dashoffset:2834.65;paint-order:markers stroke fill"
       d="m 85.097645,112.04278 c -9.013221,0 -16.447076,7.43435 -16.447058,16.44757 v 39.35315 c 0,9.01321 7.433849,16.44758 16.447058,16.44758 h 39.353665 c 9.01322,1e-5 16.44913,-7.43436 16.44913,-16.44758 v -39.35315 c 2e-5,-9.01323 -7.4359,-16.44759 -16.44913,-16.44757 z m 5.17e-4,5.9526 h 39.353668 a 10.49443,10.49443 0 0 1 10.49445,10.49445 v 39.35367 a 10.49443,10.49443 0 0 1 -10.49445,10.49445 H 85.098162 A 10.49443,10.49443 0 0 1 74.603712,167.8435 v -39.35367 a 10.49443,10.49443 0 0 1 10.49445,-10.49445 z" /><text
       xml:space="preserve"
       style="font-style:normal;font-variant:normal;font-weight:normal;font-stretch:normal;font-size:26.5517px;line-height:1;font-family:pusab;-inkscape-font-specification:pusab;text-align:center;letter-spacing:0px;word-spacing:0px;writing-mode:lr-tb;direction:ltr;text-anchor:middle;fill:#ffffff;fill-rule:evenodd;stroke-width:8.85056;stroke-linecap:round;stroke-linejoin:round;stroke-dashoffset:2834.65;paint-order:markers stroke fill"
       x="104.66334"
       y="147.11499"
       id="text1"><tspan
         sodipodi:role="line"
         id="tspan1"
         style="stroke-width:8.85056"
         x="104.66334"
         y="147.11499" /></text><g
       id="g3"
       transform="translate(0,-4.6931086)"><g
         id="g2"
         transform="translate(-0.655968,-1.6292825)"><path
           id="path2"
           style="fill:#ffffff;fill-rule:evenodd;stroke:#000000;stroke-width:2.64583;stroke-linecap:round;stroke-linejoin:round;stroke-dasharray:none;stroke-dashoffset:2834.65;stroke-opacity:1;paint-order:markers stroke fill"
           d="m 129.62892,145.52586 c 1e-5,6.63127 -10.83379,12.00704 -24.19796,12.00704 -1.67052,0 -2.89307,8.53904 -17.888547,8.53904 -0.820971,0 12.459777,-6.25934 0.778006,-12.0558 -4.378973,-2.17283 -7.087416,-5.17458 -7.08741,-8.49022 0,-6.63127 10.833793,-12.00697 24.197951,-12.00697 13.36416,0 24.19796,5.37564 24.19796,12.00691 z"
           sodipodi:nodetypes="sssscss" /><text
           xml:space="preserve"
           style="font-style:normal;font-variant:normal;font-weight:normal;font-stretch:normal;font-size:32.3588px;line-height:1;font-family:pusab;-inkscape-font-specification:pusab;text-align:center;letter-spacing:0px;word-spacing:0px;writing-mode:lr-tb;direction:ltr;text-anchor:middle;fill:#ffffff;fill-rule:evenodd;stroke:#000000;stroke-width:10.7863;stroke-linecap:round;stroke-linejoin:round;stroke-dasharray:none;stroke-dashoffset:2834.65;stroke-opacity:1;paint-order:markers stroke fill"
           x="105.41498"
           y="147.95277"
           id="text2"><tspan
             sodipodi:role="line"
             id="tspan2"
             style="fill:#000000;stroke:none;stroke-width:10.7863"
             x="105.41498"
             y="147.95277">...</tspan></text></g><text
         xml:space="preserve"
         style="font-style:normal;font-variant:normal;font-weight:normal;font-stretch:normal;font-size:7.9375px;line-height:1;font-family:pusab;-inkscape-font-specification:pusab;text-align:center;letter-spacing:0px;word-spacing:0px;writing-mode:lr-tb;direction:ltr;text-anchor:middle;fill:#000000;fill-rule:evenodd;stroke:none;stroke-width:1.32292;stroke-linecap:round;stroke-linejoin:round;stroke-dasharray:none;stroke-dashoffset:2834.65;stroke-opacity:1;paint-order:markers stroke fill"
         x="104.77499"
         y="174.37837"
         id="text3"><tspan
           sodipodi:role="line"
           id="tspan3"
           style="fill:#ffffff;stroke:#000000;stroke-width:1.32292;stroke-dasharray:none;stroke-opacity:1"
           x="104.77499"
           y="174.37837">Templates</tspan></text></g></g></svg>
